<svg width="34" height="19" viewBox="0 0 34 19" fill="none" xmlns="http://www.w3.org/2000/svg">
<path d="M4.54459 3.32175C5.45716 3.32175 6.23588 3.54685 6.88076 3.99705C7.52565 4.44725 7.97585 5.04346 8.23137 5.78568V0H10.3303V13.506H8.23137V11.1698C7.97585 11.9121 7.52565 12.5083 6.88076 12.9585C6.23588 13.4087 5.45716 13.6338 4.54459 13.6338C3.66852 13.6338 2.88372 13.4269 2.19016 13.0132C1.50878 12.5995 0.973406 12.0033 0.584044 11.2246C0.194681 10.4459 0 9.52721 0 8.46863C0 7.42222 0.194681 6.50965 0.584044 5.73093C0.973406 4.9522 1.50878 4.35599 2.19016 3.94229C2.88372 3.5286 3.66852 3.32175 4.54459 3.32175ZM5.18339 5.14688C4.25865 5.14688 3.51643 5.44499 2.95672 6.0412C2.40918 6.62524 2.13541 7.43439 2.13541 8.46863C2.13541 9.50288 2.40918 10.3181 2.95672 10.9143C3.51643 11.4984 4.25865 11.7904 5.18339 11.7904C5.76743 11.7904 6.29064 11.6565 6.75301 11.3889C7.21537 11.109 7.5804 10.7196 7.84809 10.2208C8.11577 9.72189 8.24962 9.13785 8.24962 8.46863C8.24962 7.81158 8.11577 7.23362 7.84809 6.73475C7.5804 6.22372 7.21537 5.83435 6.75301 5.56667C6.29064 5.28681 5.76743 5.14688 5.18339 5.14688Z" fill="#29A8FF"/>
<path d="M22.1718 7.9941C22.1718 8.33479 22.1475 8.63289 22.0988 8.88841H14.3603C14.3968 9.92266 14.6827 10.6892 15.2181 11.1881C15.7534 11.687 16.4166 11.9364 17.2075 11.9364C17.901 11.9364 18.4851 11.76 18.9596 11.4071C19.4463 11.0542 19.7444 10.5858 19.8539 10.0017H22.0806C21.9467 10.7075 21.6669 11.3341 21.241 11.8816C20.8152 12.4292 20.2615 12.8611 19.5801 13.1775C18.8988 13.4817 18.1383 13.6338 17.2987 13.6338C16.3253 13.6338 15.4614 13.4269 14.707 13.0132C13.9648 12.5995 13.3808 12.0033 12.9549 11.2246C12.529 10.4459 12.3161 9.52721 12.3161 8.46863C12.3161 7.42222 12.529 6.50965 12.9549 5.73093C13.3808 4.9522 13.9648 4.35599 14.707 3.94229C15.4614 3.5286 16.3253 3.32175 17.2987 3.32175C18.2843 3.32175 19.1421 3.5286 19.8722 3.94229C20.6144 4.34382 21.1802 4.90353 21.5695 5.62142C21.9711 6.32714 22.1718 7.11803 22.1718 7.9941ZM20.0729 7.93934C20.0973 7.28229 19.9817 6.73475 19.7262 6.29672C19.4828 5.84652 19.1421 5.518 18.7041 5.31115C18.2782 5.09213 17.8098 4.98262 17.2987 4.98262C16.4835 4.98262 15.8021 5.23206 15.2546 5.73093C14.707 6.2298 14.4089 6.96594 14.3603 7.93934H20.0729Z" fill="#29A8FF"/>
<path d="M28.2143 3.32175C29.1269 3.32175 29.9056 3.54685 30.5505 3.99705C31.1954 4.44725 31.6517 5.04346 31.9194 5.78568V3.44951H34V13.6155C34 14.5524 33.8053 15.3798 33.416 16.0977C33.0388 16.8278 32.4912 17.3996 31.7733 17.8133C31.0555 18.227 30.2037 18.4339 29.2182 18.4339C27.8067 18.4339 26.663 18.0993 25.7869 17.4301C24.923 16.7608 24.3815 15.8544 24.1625 14.7106H26.2249C26.3953 15.3068 26.7238 15.7692 27.2105 16.0977C27.6972 16.4384 28.3178 16.6087 29.0721 16.6087C29.8995 16.6087 30.5809 16.3532 31.1163 15.8422C31.6517 15.3311 31.9194 14.5889 31.9194 13.6155V11.1698C31.6517 11.9121 31.1954 12.5083 30.5505 12.9585C29.9056 13.4087 29.1269 13.6338 28.2143 13.6338C27.3383 13.6338 26.5535 13.4269 25.8599 13.0132C25.1785 12.5995 24.6431 12.0033 24.2538 11.2246C23.8644 10.4459 23.6697 9.52721 23.6697 8.46863C23.6697 7.42222 23.8644 6.50965 24.2538 5.73093C24.6431 4.9522 25.1785 4.35599 25.8599 3.94229C26.5535 3.5286 27.3383 3.32175 28.2143 3.32175ZM28.8531 5.14688C27.9284 5.14688 27.1862 5.44499 26.6265 6.0412C26.0789 6.62524 25.8051 7.43439 25.8051 8.46863C25.8051 9.50288 26.0789 10.3181 26.6265 10.9143C27.1862 11.4984 27.9284 11.7904 28.8531 11.7904C29.4372 11.7904 29.9604 11.6565 30.4227 11.3889C30.8851 11.109 31.2501 10.7196 31.5178 10.2208C31.7855 9.72189 31.9194 9.13785 31.9194 8.46863C31.9194 7.81158 31.7855 7.23362 31.5178 6.73475C31.2501 6.22372 30.8851 5.83435 30.4227 5.56667C29.9604 5.28681 29.4372 5.14688 28.8531 5.14688Z" fill="#29A8FF"/>
</svg>
