<svg width="10" height="11" viewBox="0 0 10 11" fill="none" xmlns="http://www.w3.org/2000/svg">
<path d="M10 4.74074C10 5.08642 9.97531 5.38889 9.92593 5.64815H2.07407C2.11111 6.69753 2.40123 7.47531 2.94444 7.98148C3.48765 8.48765 4.16049 8.74074 4.96296 8.74074C5.66667 8.74074 6.25926 8.56173 6.74074 8.2037C7.23457 7.84568 7.53704 7.37037 7.64815 6.77778H9.90741C9.7716 7.49383 9.48765 8.12963 9.05556 8.68519C8.62346 9.24074 8.06173 9.67901 7.37037 10C6.67901 10.3086 5.90741 10.463 5.05556 10.463C4.0679 10.463 3.19136 10.2531 2.42593 9.83333C1.67284 9.41358 1.08025 8.80864 0.648148 8.01852C0.216049 7.22839 0 6.2963 0 5.22222C0 4.16049 0.216049 3.23457 0.648148 2.44444C1.08025 1.65432 1.67284 1.04938 2.42593 0.629629C3.19136 0.209876 4.0679 0 5.05556 0C6.05556 0 6.92593 0.209876 7.66667 0.629629C8.41975 1.03704 8.99383 1.60494 9.38889 2.33333C9.7963 3.04938 10 3.85185 10 4.74074ZM7.87037 4.68519C7.89506 4.01852 7.77778 3.46296 7.51852 3.01852C7.2716 2.56173 6.92593 2.22839 6.48148 2.01852C6.04938 1.7963 5.57407 1.68519 5.05556 1.68519C4.2284 1.68519 3.53704 1.93827 2.98148 2.44444C2.42593 2.95062 2.12346 3.69753 2.07407 4.68519H7.87037Z" fill="#29A8FF"/>
</svg>
