<svg width="10" height="15" viewBox="0 0 10 15" fill="none" xmlns="http://www.w3.org/2000/svg">
<path d="M9.61255 0V10.1661H7.49078V8.04428C7.23247 8.76999 6.80197 9.32965 6.19926 9.72325C5.60886 10.1169 4.9139 10.3137 4.11439 10.3137C3.70849 10.3137 3.32718 10.2399 2.97048 10.0923C2.61378 9.94465 2.32472 9.7048 2.10332 9.37269V15H0V0H2.10332V5.2952C2.10332 6.32841 2.34932 7.11562 2.84133 7.65683C3.34563 8.19803 4.01599 8.46864 4.8524 8.46864C5.65191 8.46864 6.29151 8.21033 6.77122 7.69373C7.25092 7.16482 7.49078 6.39607 7.49078 5.38745V0H9.61255Z" fill="#29A8FF"/>
</svg>
