<svg width="24" height="15" viewBox="0 0 24 15" fill="none" xmlns="http://www.w3.org/2000/svg">
<path d="M3.69991 3.9901C4.87276 3.9901 5.80983 4.29238 6.51112 4.89694C7.2245 5.48941 7.65979 6.28743 7.81697 7.29101H5.8582C5.77356 6.7469 5.53778 6.31162 5.15086 5.98515C4.77603 5.6466 4.27425 5.47732 3.6455 5.47732C3.12558 5.47732 2.72052 5.60428 2.43034 5.8582C2.15224 6.10002 2.01319 6.43253 2.01319 6.85572C2.01319 7.17009 2.11596 7.42401 2.32151 7.61747C2.52706 7.81093 2.78098 7.96207 3.08326 8.07089C3.39763 8.17971 3.83896 8.30062 4.40725 8.43363C5.1569 8.6029 5.76147 8.77822 6.22093 8.95959C6.69249 9.14096 7.0915 9.43115 7.41796 9.83016C7.75652 10.2171 7.92579 10.7491 7.92579 11.4262C7.92579 12.2605 7.60538 12.9376 6.96454 13.4575C6.3358 13.9774 5.48337 14.2374 4.40725 14.2374C3.16185 14.2374 2.15224 13.9472 1.3784 13.3668C0.616652 12.7865 0.157186 11.9764 0 10.9365H2.01319C2.07364 11.4806 2.31547 11.9219 2.73866 12.2605C3.16185 12.5991 3.71805 12.7683 4.40725 12.7683C4.90299 12.7683 5.28991 12.6414 5.56801 12.3875C5.8582 12.1214 6.00329 11.7889 6.00329 11.3899C6.00329 11.0393 5.89447 10.7612 5.67683 10.5556C5.45919 10.3501 5.18713 10.1929 4.86067 10.0841C4.53421 9.96317 4.08683 9.84225 3.51854 9.72134C2.79307 9.55206 2.2006 9.38279 1.74114 9.21351C1.29376 9.04423 0.906841 8.77218 0.580378 8.39735C0.266007 8.01043 0.108821 7.49051 0.108821 6.83758C0.108821 5.9912 0.423193 5.30805 1.05194 4.78812C1.69277 4.25611 2.57543 3.9901 3.69991 3.9901Z" fill="#29A8FF"/>
<path d="M9.70901 1.21517C9.70901 0.864523 9.82992 0.574334 10.0717 0.3446C10.3136 0.114867 10.634 0 11.033 0C11.432 0 11.7524 0.114867 11.9943 0.3446C12.2482 0.574334 12.3751 0.864523 12.3751 1.21517C12.3751 1.56581 12.2482 1.84996 11.9943 2.0676C11.7524 2.28524 11.432 2.39406 11.033 2.39406C10.634 2.39406 10.3136 2.28524 10.0717 2.0676C9.82992 1.84996 9.70901 1.56581 9.70901 1.21517ZM12.0668 4.11706V14.1105H9.9992V4.11706H12.0668Z" fill="#29A8FF"/>
<path d="M20.155 3.95383C21.3157 3.95383 22.2468 4.32866 22.948 5.07831C23.6493 5.82797 24 6.89804 24 8.28853V14.1105H21.9324V8.50617C21.9324 7.61142 21.7026 6.92222 21.2432 6.43857C20.7837 5.94283 20.155 5.69496 19.357 5.69496C18.5348 5.69496 17.8758 5.96097 17.38 6.49299C16.8843 7.01291 16.6364 7.7807 16.6364 8.79636V14.1105H14.5688V4.11706H16.6364V6.31162C16.9024 5.56196 17.3498 4.98158 17.9786 4.57048C18.6073 4.15938 19.3328 3.95383 20.155 3.95383Z" fill="#29A8FF"/>
</svg>
